<svg xmlns="http://www.w3.org/2000/svg" viewBox="0 0 132 132">
  <title>dolittle-white</title>
  <g>
    <path d="M62.52,45.45H43.47a3.3,3.3,0,0,0-2.84,1.64l-9.5,16.46a3.28,3.28,0,0,0,0,3.29l9.5,16.45a3.25,3.25,0,0,0,2.84,1.64H62.52a3.26,3.26,0,0,0,2.85-1.64l9.5-16.45a3.28,3.28,0,0,0,0-3.29L65.32,47.09A3.3,3.3,0,0,0,62.52,45.45Z" fill="#fff"/>
    <path d="M92.37,1.81a1.61,1.61,0,0,0-2.21-.59,1.52,1.52,0,0,0-.59.59L74.21,28.41a2.79,2.79,0,0,0,0,2.74l19.12,33a2,2,0,0,1,0,2L74,99.59a2,2,0,0,1-1.76,1H34.11A2.69,2.69,0,0,0,31.75,102L16.38,128.57a1.62,1.62,0,0,0,.6,2.22,1.6,1.6,0,0,0,.81.21h69a7.29,7.29,0,0,0,6.32-3.65l33.78-58.51a7.32,7.32,0,0,0,0-7.3Z" fill="#fff"/>
  </g>
</svg>
