<?xml version="1.0" encoding="utf-8"?>
<!-- Generator: Adobe Illustrator 22.0.1, SVG Export Plug-In . SVG Version: 6.00 Build 0)  -->
<svg version="1.1" id="Layer_1" xmlns="http://www.w3.org/2000/svg" xmlns:xlink="http://www.w3.org/1999/xlink" x="0px" y="0px"
	 viewBox="0 0 165 39" style="enable-background:new 0 0 165 39;" xml:space="preserve">
<style type="text/css">
	.orange{fill:#FF4B00;}
	.black{fill:#1D1E1C;}
</style>
<title>dolittle_positiv_horisontal</title>
<g>
	<path class="orange" d="M13.8,13.3H8.2c-0.3,0-0.7,0.2-0.8,0.5l-2.8,4.9c-0.2,0.3-0.2,0.7,0,1l2.8,4.9C7.5,24.8,7.8,25,8.2,25h5.6
		c0.3,0,0.7-0.2,0.8-0.5l2.8-4.9c0.2-0.3,0.2-0.7,0-1l-2.8-4.9C14.5,13.5,14.2,13.3,13.8,13.3z"/>
	<path class="orange" d="M22.7,0.3C22.5,0.1,22.2,0,22,0.2c-0.1,0-0.1,0.1-0.2,0.2l-4.5,7.9c-0.1,0.3-0.1,0.6,0,0.8l5.6,9.8
		c0.1,0.2,0.1,0.4,0,0.6l-5.7,9.9c-0.1,0.2-0.3,0.3-0.5,0.3H5.4c-0.3,0-0.6,0.2-0.7,0.4l-4.5,7.9c-0.1,0.2-0.1,0.5,0.2,0.7
		c0.1,0,0.2,0.1,0.2,0.1H21c0.8,0,1.5-0.4,1.9-1.1l10-17.3c0.4-0.7,0.4-1.5,0-2.2L22.7,0.3z"/>
	<path class="black" d="M65.7,21.5L65.7,21.5c0.2-4.8,4.2-8.5,8.9-8.4c4.6,0.2,8.2,3.8,8.4,8.4l0,0c0,4.8-3.9,8.6-8.7,8.6
		C69.6,30.1,65.7,26.3,65.7,21.5L65.7,21.5z M79.2,21.5L79.2,21.5c0.1-2.8-2.1-5.1-4.9-5.1c0,0,0,0-0.1,0c-2.7,0-4.9,2.1-4.9,4.8
		c0,0.1,0,0.2,0,0.2l0,0c-0.1,2.8,2.1,5.1,4.9,5.1c0,0,0,0,0.1,0c2.7,0,4.9-2.2,4.9-4.9C79.2,21.6,79.2,21.6,79.2,21.5L79.2,21.5z"
		/>
	<path class="black" d="M65.7,21.5L65.7,21.5c0.2-4.8,4.2-8.5,8.9-8.4c4.6,0.2,8.2,3.8,8.4,8.4l0,0c0,4.8-3.9,8.6-8.7,8.6
		C69.6,30.1,65.7,26.3,65.7,21.5L65.7,21.5z M79.2,21.5L79.2,21.5c0.1-2.8-2.1-5.1-4.9-5.1c0,0,0,0-0.1,0c-2.7,0-4.9,2.1-4.9,4.8
		c0,0.1,0,0.2,0,0.2l0,0c-0.1,2.8,2.1,5.1,4.9,5.1c0,0,0,0,0.1,0c2.7,0,4.9-2.2,4.9-4.9C79.2,21.6,79.2,21.6,79.2,21.5L79.2,21.5z"
		/>
	<path class="black" d="M48.5,14.4c0-0.6,0.5-1.1,1.1-1.1h5.2c5.1,0,8.6,3.6,8.6,8.1l0,0c0,4.6-3.6,8.1-8.7,8.1h-5.2
		c-0.6,0-1.1-0.5-1.1-1.1L48.5,14.4z M54.8,26.4c2.6,0.2,4.8-1.8,4.9-4.3c0-0.2,0-0.3,0-0.5v-0.1c0.1-2.6-1.8-4.8-4.4-4.9
		c-0.2,0-0.3,0-0.5,0H52v9.8L54.8,26.4z"/>
	<path class="black" d="M85.8,15c0-1,0.8-1.8,1.8-1.8c0.1,0,0.2,0,0.2,0c0.9,0.1,1.6,0.9,1.6,1.8v11.3h6.6c0.8,0,1.5,0.6,1.7,1.4
		c0.1,0.9-0.5,1.7-1.3,1.9c-0.1,0-0.2,0-0.3,0h-9.1c-0.6,0-1.1-0.5-1.1-1.1c0,0,0,0,0,0L85.8,15z"/>
	<path class="black" d="M100.3,15c0-1,0.8-1.8,1.8-1.8c1,0,1.8,0.8,1.8,1.8l-0.1,13c0,1-0.8,1.8-1.8,1.8c-1,0-1.8-0.8-1.8-1.8
		L100.3,15z"/>
	<path class="black" d="M111.5,16.6h-3.4c-0.9,0-1.6-0.7-1.6-1.7c0-0.9,0.7-1.6,1.6-1.6h10.5c0.9-0.1,1.7,0.6,1.8,1.5
		c0.1,0.9-0.6,1.7-1.5,1.8c-0.1,0-0.2,0-0.3,0h-3.4V28c-0.1,1-0.9,1.7-1.9,1.7c-0.9-0.1-1.6-0.8-1.7-1.7L111.5,16.6z"/>
	<path class="black" d="M126.6,16.6h-3.4c-0.9,0-1.7-0.7-1.7-1.6s0.7-1.7,1.6-1.7c0,0,0,0,0,0h10.5c0.9-0.1,1.7,0.6,1.8,1.5
		c0.1,0.9-0.6,1.7-1.5,1.8c-0.1,0-0.2,0-0.3,0h-3.4V28c0,1-0.8,1.8-1.8,1.8c-1,0-1.8-0.8-1.8-1.8V16.6z"/>
	<path class="black" d="M137.9,14.9c0-1,0.8-1.8,1.8-1.8c0.1,0,0.1,0,0.2,0c0.9,0.1,1.6,0.9,1.6,1.9v11.3h6.6c0.8,0,1.5,0.6,1.7,1.4
		c0.1,0.9-0.5,1.7-1.3,1.9c-0.1,0-0.2,0-0.3,0H139c-0.6,0-1.1-0.5-1.1-1.1L137.9,14.9z"/>
	<path class="black" d="M152.3,28.5l0.1-14.1c0-0.6,0.5-1.1,1.1-1.1c0,0,0,0,0,0h9.6c0.9,0,1.6,0.6,1.7,1.5c0.1,0.9-0.6,1.6-1.4,1.7
		c-0.1,0-0.1,0-0.2,0h-7.3v3.3h6.1c0.8,0,1.6,0.6,1.7,1.5c0.1,0.9-0.6,1.6-1.4,1.7c-0.1,0-0.1,0-0.2,0h-6.2v3.4h7.3
		c0.8,0,1.6,0.6,1.7,1.5c0.1,0.9-0.6,1.6-1.4,1.7c-0.1,0-0.1,0-0.2,0h-9.8C152.8,29.6,152.3,29.1,152.3,28.5
		C152.3,28.5,152.3,28.5,152.3,28.5z"/>
	<path class="black" d="M152.3,28.5l0.1-14.1c0-0.6,0.5-1.1,1.1-1.1c0,0,0,0,0,0h9.6c0.9,0,1.6,0.6,1.7,1.5c0.1,0.9-0.6,1.6-1.4,1.7
		c-0.1,0-0.1,0-0.2,0h-7.3v3.3h6.1c0.8,0,1.6,0.6,1.7,1.5c0.1,0.9-0.6,1.6-1.4,1.7c-0.1,0-0.1,0-0.2,0h-6.2v3.4h7.3
		c0.8,0,1.6,0.6,1.7,1.5c0.1,0.9-0.6,1.6-1.4,1.7c-0.1,0-0.1,0-0.2,0h-9.8C152.8,29.6,152.3,29.1,152.3,28.5
		C152.3,28.5,152.3,28.5,152.3,28.5z"/>
</g>
</svg>
