<svg id="Layer_1" data-name="Layer 1" xmlns="http://www.w3.org/2000/svg" viewBox="0 0 127.56 131.07"><defs><style>.cls-1{fill:#fff;}</style></defs><title>dolittle_symbol_white</title><path class="cls-1" d="M61,45.12H42.07a3.25,3.25,0,0,0-2.82,1.63L29.81,63.1a3.24,3.24,0,0,0,0,3.27l9.44,16.35a3.25,3.25,0,0,0,2.82,1.63H61a3.26,3.26,0,0,0,2.83-1.63l9.44-16.35a3.29,3.29,0,0,0,0-3.27L63.78,46.75A3.26,3.26,0,0,0,61,45.12Z"/><path class="cls-1" d="M90.66,1.76a1.61,1.61,0,0,0-2.79,0L72.61,28.19a2.75,2.75,0,0,0,0,2.72l19,32.81a2,2,0,0,1,0,2L72.41,98.91a2,2,0,0,1-1.75,1H32.77a2.71,2.71,0,0,0-2.35,1.36L15.15,127.71a1.61,1.61,0,0,0,1.4,2.41H85.08a7.25,7.25,0,0,0,6.28-3.63l33.56-58.13a7.23,7.23,0,0,0,0-7.25Z"/></svg>