<svg width="440" height="76" viewBox="0 0 440 76" fill="none" xmlns="http://www.w3.org/2000/svg">
<g clip-path="url(#clip0_14_2302)">
<path d="M20.379 4.89027L-0.00195312 70.1982H13.2423L17.5826 55.3632H42.7585L47.0988 70.1982H60.3457L39.9621 4.89027H20.379ZM21.6315 43.9316L30.1705 17.1917L38.7123 43.9316H21.6315Z" fill="#191A21"/>
<path d="M20.379 4.89027L-0.00195312 70.1982H13.2423L17.5826 55.3632H42.7585L47.0988 70.1982H60.3457L39.9621 4.89027H20.379ZM21.6315 43.9316L30.1705 17.1917L38.7123 43.9316H21.6315Z" fill="url(#paint0_linear_14_2302)"/>
<path d="M94.2526 4.89027H81.5789V70.1931H94.2526V4.89027Z" fill="#191A21"/>
<path d="M94.2526 4.89027H81.5789V70.1931H94.2526V4.89027Z" fill="url(#paint1_linear_14_2302)"/>
<path d="M145.328 4.89027C145.328 4.89027 115.488 5.82146 115.488 37.5444C115.488 69.2673 145.328 70.1982 145.328 70.1982H168.77V33.6524H156.095V57.5226H145.878C145.878 57.5226 128.248 56.4697 128.248 37.5444C128.248 18.619 145.878 17.5658 145.878 17.5658H168.77V4.89027H145.328Z" fill="#191A21"/>
<path d="M145.328 4.89027C145.328 4.89027 115.488 5.82146 115.488 37.5444C115.488 69.2673 145.328 70.1982 145.328 70.1982H168.77V33.6524H156.095V57.5226H145.878C145.878 57.5226 128.248 56.4697 128.248 37.5444C128.248 18.619 145.878 17.5658 145.878 17.5658H168.77V4.89027H145.328Z" fill="url(#paint2_linear_14_2302)"/>
<path d="M276.516 4.89027V70.1982H289.188L289.09 23.5638L314.323 70.1982H331.099V4.89027H318.424V51.2117L293.123 4.89027H276.516Z" fill="#191A21"/>
<path d="M276.516 4.89027V70.1982H289.188L289.09 23.5638L314.323 70.1982H331.099V4.89027H318.424V51.2117L293.123 4.89027H276.516Z" fill="url(#paint3_linear_14_2302)"/>
<path d="M365.008 4.89027H352.334V70.1931H365.008V4.89027Z" fill="#191A21"/>
<path d="M365.008 4.89027H352.334V70.1931H365.008V4.89027Z" fill="url(#paint4_linear_14_2302)"/>
<path d="M439.93 70.1982L420.726 37.5444L439.93 4.89027H424.655L413.085 24.5558L401.518 4.89027H386.24L405.448 37.5444L386.24 70.1982H401.518L413.085 50.5326L424.655 70.1982H439.93Z" fill="#191A21"/>
<path d="M439.93 70.1982L420.726 37.5444L439.93 4.89027H424.655L413.085 24.5558L401.518 4.89027H386.24L405.448 37.5444L386.24 70.1982H401.518L413.085 50.5326L424.655 70.1982H439.93Z" fill="url(#paint5_linear_14_2302)"/>
<path fill-rule="evenodd" clip-rule="evenodd" d="M255.279 18.8997L222.641 0.0585632L190.006 18.8997V56.5797L222.641 75.4208L255.279 56.5797V18.8997ZM240.119 24.5168L222.641 14.412L205.29 24.4431L222.754 34.5384L240.119 24.5168ZM242.842 29.3646L225.533 39.354V59.3953L242.842 49.3884V29.3646ZM219.973 59.5252V39.3527L202.439 29.2173V49.3884L219.973 59.5252Z" fill="#191A21"/>
<path fill-rule="evenodd" clip-rule="evenodd" d="M255.279 18.8997L222.641 0.0585632L190.006 18.8997V56.5797L222.641 75.4208L255.279 56.5797V18.8997ZM240.119 24.5168L222.641 14.412L205.29 24.4431L222.754 34.5384L240.119 24.5168ZM242.842 29.3646L225.533 39.354V59.3953L242.842 49.3884V29.3646ZM219.973 59.5252V39.3527L202.439 29.2173V49.3884L219.973 59.5252Z" fill="url(#paint6_linear_14_2302)"/>
</g>
<defs>
<linearGradient id="paint0_linear_14_2302" x1="30.1719" y1="4.89027" x2="30.1719" y2="70.1982" gradientUnits="userSpaceOnUse">
<stop stop-color="white" stop-opacity="0.05"/>
<stop offset="1" stop-color="white" stop-opacity="0.05"/>
</linearGradient>
<linearGradient id="paint1_linear_14_2302" x1="87.9158" y1="4.89027" x2="87.9158" y2="70.1931" gradientUnits="userSpaceOnUse">
<stop stop-color="white" stop-opacity="0.05"/>
<stop offset="1" stop-color="white" stop-opacity="0.05"/>
</linearGradient>
<linearGradient id="paint2_linear_14_2302" x1="142.129" y1="4.89027" x2="142.129" y2="70.1982" gradientUnits="userSpaceOnUse">
<stop stop-color="white" stop-opacity="0.05"/>
<stop offset="1" stop-color="white" stop-opacity="0.05"/>
</linearGradient>
<linearGradient id="paint3_linear_14_2302" x1="303.807" y1="4.89027" x2="303.807" y2="70.1982" gradientUnits="userSpaceOnUse">
<stop stop-color="white" stop-opacity="0.05"/>
<stop offset="1" stop-color="white" stop-opacity="0.05"/>
</linearGradient>
<linearGradient id="paint4_linear_14_2302" x1="358.671" y1="4.89027" x2="358.671" y2="70.1931" gradientUnits="userSpaceOnUse">
<stop stop-color="white" stop-opacity="0.05"/>
<stop offset="1" stop-color="white" stop-opacity="0.05"/>
</linearGradient>
<linearGradient id="paint5_linear_14_2302" x1="413.085" y1="4.89027" x2="413.085" y2="70.1982" gradientUnits="userSpaceOnUse">
<stop stop-color="white" stop-opacity="0.05"/>
<stop offset="1" stop-color="white" stop-opacity="0.05"/>
</linearGradient>
<linearGradient id="paint6_linear_14_2302" x1="222.642" y1="0.0585632" x2="222.642" y2="75.4208" gradientUnits="userSpaceOnUse">
<stop stop-color="white" stop-opacity="0.05"/>
<stop offset="1" stop-color="white" stop-opacity="0.05"/>
</linearGradient>
<clipPath id="clip0_14_2302">
<rect width="440" height="75.6133" fill="white"/>
</clipPath>
</defs>
</svg>
